<svg width="80" height="80" viewBox="139 42 64 64" fill="none" xmlns="http://www.w3.org/2000/svg">
<path d="M186.905 70.8877H181.011L188.952 62.7817L189 62.7337L186.105 59.835H178.23V58.0703C178.23 56.9289 177.303 56 176.163 56H167.712C166.573 56 165.646 56.9285 165.646 58.0703V72.9717H155.095C153.956 72.9717 153.028 73.9007 153.028 75.042C153.028 76.1833 153.956 77.1123 155.095 77.1123H160.989L153.048 85.2153L153 85.2634L155.894 88.1621H163.77V89.9297C163.77 91.0711 164.697 92 165.837 92H174.287C175.427 92 176.354 91.0715 176.354 89.9297V75.0283H186.905C188.045 75.0283 188.972 74.0998 188.972 72.958C188.972 71.8162 188.045 70.8877 186.905 70.8877ZM175.494 89.9297C175.494 90.5958 174.953 91.1382 174.288 91.1382C173.622 91.1382 173.081 90.5963 173.081 89.9297V78.0741L164.368 86.9663L162.662 85.2575L171.491 76.25H163.545C162.88 76.25 162.339 75.7081 162.339 75.0415C162.339 74.375 162.88 73.833 163.545 73.833H173.712C174.695 73.833 175.494 74.6339 175.494 75.6183V89.9297ZM186.905 74.1665H176.738C175.755 74.1665 174.956 73.3656 174.956 72.3817V58.0703C174.956 57.4042 175.497 56.8618 176.162 56.8618C176.828 56.8618 177.369 57.4037 177.369 58.0703V69.9259L186.082 61.0303L187.788 62.7391L178.959 71.75H186.905C187.57 71.75 188.111 72.2919 188.111 72.9585C188.111 73.625 187.57 74.167 186.905 74.167L186.905 74.1665Z" fill="black"/>
</svg>
