<svg xmlns="http://www.w3.org/2000/svg" viewBox="0 0 192 192" role="img" aria-label="Radiant">
  <rect width="192" height="192" rx="44" fill="#faf6ec"/>
  <rect x="10" y="10" width="172" height="172" rx="36" fill="#ffffff" stroke="#1b1610" stroke-width="8"/>
  <g fill="none" stroke="#1b1610" stroke-linecap="round" stroke-linejoin="round">
    <path
      d="M96 52l6.5 18.5L121 77l-18.5 6.5L96 102l-6.5-18.5L71 77l18.5-6.5L96 52z"
      fill="#ffb01f"
      stroke-width="5"
    />
    <path d="M132 58l2.5 7 7 2.5-7 2.5-2.5 7-2.5-7-7-2.5 7-2.5 2.5-7z" fill="#00c478" stroke-width="3"/>
    <path d="M58 118l2 5.5 5.5 2-5.5 2-2 5.5-2-5.5-5.5-2 5.5-2 2-5.5z" fill="#ff5d46" stroke-width="3"/>
    <path d="M128 124l1.5 4 4 1.5-4 1.5-1.5 4-1.5-4-4-1.5 4-1.5 1.5-4z" fill="#8e5bff" stroke-width="2.5"/>
  </g>
</svg>
